<svg id="Layer_1" data-name="Layer 1" xmlns="http://www.w3.org/2000/svg" xmlns:xlink="http://www.w3.org/1999/xlink" viewBox="0 0 582.96 261.45"><defs><style>.cls-1{fill:#ea7c0f;}.cls-2{fill:#c6551c;}.cls-3{fill:#754c24;}.cls-4{fill:#1adbe5;}.cls-5{fill:#42210b;}.cls-6,.cls-8{fill:#603813;}.cls-7{fill:#f2f2f2;}.cls-8{opacity:0.69;}.cls-9{fill:url(#linear-gradient);}</style><linearGradient id="linear-gradient" x1="359.06" y1="370.51" x2="443.16" y2="370.51" gradientUnits="userSpaceOnUse"><stop offset="0" stop-color="#754c24"/><stop offset="1" stop-color="#c6551c"/></linearGradient></defs><title>Formoose</title><path class="cls-1" d="M558.22,230.91s-8.22,3.76-22.31-2.68a87,87,0,0,1-22.16-14.69s-2.5-5,2.25-2.52c0,0,29,21.54,36.75,14.27,0,0,1.75-3.53-2.25-3.53,0,0-25-6.09-35.5-27.25a3.58,3.58,0,0,1-1.5-4.17A2.84,2.84,0,0,1,515,189a59.67,59.67,0,0,0,37.25,27,6,6,0,0,0,2.25-4.67,5.91,5.91,0,0,0-2.17-4.33,78.87,78.87,0,0,1-6.55-24.5c-0.45-4.74-.59-11,0-11.11,0.8-.1,2.7,11.11,2.7,11.11l4.5,17,3.5-12.25,2-.5,0.75,3s-3,15-2,16.13,3.81-.38,3.81-2.13a0.65,0.65,0,0,1,.21-0.61c0.32-.17.76,1,1.73,1.24a2,2,0,0,0,1.17,0l-4.5,3.33-0.92,3.83s9.13,14.13,17.63,2.25c0,0,3.19-4.67,2.16-7.9,0,0,3.22-1.1,3.59,1.4a20.4,20.4,0,0,1-4.87,14.38s11.88-1.87,13.13-8.62a4.53,4.53,0,0,0-.87-5.62s-1.39-3.25,1.8-2.37c0,0,2.07,0,3.2,3.13a22.39,22.39,0,0,0,2.25,4.75s3.63,1.38,3.88-2.12-0.62-4.9-.62-4.9-6.75-7.23-5.5-11.35c0,0,.38-5.5,1.5-5.37s1.13,3.82,1.13,3.82,1.25,7.18,6.13,4.56c0,0,5.88.5,7.38-17.25,0,0,1.63-3.87,3.13-2.75a2.19,2.19,0,0,1,.72,1.24,2.27,2.27,0,0,1-.09,1.14c-0.26.8-1,6.81-2.62,21.88-0.12,1.54-.56,9,3.5,11.75a3.37,3.37,0,0,0,2.75.75c1.35-.45,2.19-2.53,2-5.25-1-15.86-1.88-25.08-2.83-29.17a10.13,10.13,0,0,1,.33-5.27c0.28-.6,1.34-0.43,1.92-0.15,1.24,0.58,1.34,2.46,1.71,4.71,0.59,3.58,1.13,3.62,1.79,6.88,1.77,8.67,1,23.43,2.08,23.5s3.65-7.36,3.5-15.25c-0.11-5.93-1.68-9.63-.33-16.75a9.91,9.91,0,0,1,2-5.58,1.62,1.62,0,0,1,1.08-.79c0.77,0.31-.94,4.61-1,9.88a25.63,25.63,0,0,0,.83,6.75c1.49-1.19,2.95-1,3.54-1.5,0.88-.67,3.29.25,1.38,0.88s-2.25,1.63-2.25,1.63l-0.5,1a19.34,19.34,0,0,0-.62,3.5c0.12,0.93-1,9.5-1.37,12.88,2.18-6.22,4-7.85,5.38-8.12,0.28-.06,2.23-0.43,2.43-1.21a0.9,0.9,0,0,0-.05-0.54c-0.5-1.31,0-1.25,0-1.25s0.63-1.25,1.38-.75,0.75,4.75.75,4.75S618.5,232.63,593,238.5,558.22,230.91,558.22,230.91Z" transform="translate(-181.51 -141.45)"/><path class="cls-2" d="M591.3,231.62s5.07-.41,5.41-2.08c0,0,10.23-1.19,12.73-7.19,0,0,14.7-5.84,21.2-13.51l-7.32-14.17s0-3.67,1-3,9.5,12.83,17.17,10.67c0,0,13-3.67,3.67-28.33l-10.33-15s-3.17-14,1-13.83c2.92-3.45,4-3.91,4.42-3.67,0.87,0.49-1,3.78-.12,9,0.23,1.42.45,1.64,0.88,3.5a34.73,34.73,0,0,1,.88,8.63c2.21-11.91,3.49-14.43,4.25-14.37,0.94,0.07,1.42,4.09,1.5,4.75,0.72,6-1.55,8.53.25,11.88,0.16,0.3,1.41,2.56,3,2.5,2-.08,3.2-3.62,3.38-4.12,2.72-7.73-3.9-16.22-2.75-16.92,0.65-.39,2.88,2.2,4.21,4a13.16,13.16,0,0,1,2.29,6.46A19.4,19.4,0,0,1,658,174a21.34,21.34,0,0,0-2.67,13.67A20.3,20.3,0,0,0,658,195a31.89,31.89,0,0,0,7-4.69A32.35,32.35,0,0,0,675,174V160s-0.17-23.5,9.5-.17c0,0,1.83,10.33-4.67,25.5a6.41,6.41,0,0,1-1.83,1.33c-0.67.17-.17,3.67-0.17,3.67l4.83-.33s15.67-8.17,19.67-16c0.43-2.75.82-5.62,1.15-8.62,0.36-3.3.61-6.47,0.77-9.5,4.86-11.11,7.1-14.05,8.13-13.75,2.35,0.69-2.73,18.2,2,20.63,2.85,1.46,8.24-3.07,13.46-8.58,1.54,0.6,3.25,1.6,3.85,3.29,2.18,6.1-15.88,14.13-14.06,20.42a5.8,5.8,0,0,0,5.88,3.63c2.77-.54,3.18-4.74,7-6a7.22,7.22,0,0,1,3.67-.17,13.64,13.64,0,0,1-.67,4.67c-1.84,5.56-6.88,8.14-23.49,16.88-7.8,4.1-7.57,4-7.84,4.12a88.74,88.74,0,0,1-24.92,7.5c-10.57,1.51-17,.36-26,4.25a43.12,43.12,0,0,0-13.58,9.42s-14.33,7-5.54,20c0,0-5.12,4.71-11.79-1.46C620.33,240.67,600.61,250.91,591.3,231.62Z" transform="translate(-181.51 -141.45)"/><path class="cls-3" d="M696,390s-48.5,17.5-49-12.5c0,0-6.5-11-12.5-13.5,0,0-20.5-19.5-24.5-24,0,0-3.5-1.5-3.5,2.5,0,0,3,11.5-2.75,15.75,0,0-8.75-1-19.25-24a66.68,66.68,0,0,1-23-24.75s-3.5-17.75-20.5-8.25c0,0-21.75,9.5-26.5-1.75,0,0-.75.66-4.25-1,0,0-6.5,3.8-10.25-2,0,0-8-1.25,0-9.5,0,0,.25-23,14-26.75,0,0,15-16.25,52.5-16.75,0,0,12.44-1.5,12-3.25l1.78-2.75L579.5,236s-4.75-.25-4.25-6.75c0,0,.25-2.25,1.75-2s1.25-1,2.5-.87a1.6,1.6,0,0,1,1.88,1.25,1.57,1.57,0,0,1,1.75-1.27,2.5,2.5,0,0,1,2,1.64s0.38-1.8,1.38-1.65,1.75-.1,2.13,1.9c0,0,1.63-3.62,2.88.13,0,0-.75,8.75,12.38,12.13,0,0,14.63,2.75,15.88-2.37,0,0,6,6.75,12.38,4,0,0,36.21,15.88,39.54,20.21,0,0,17,12.33,15.33,15.33,0,0,45-8,72.33,37.67S696,390,696,390Z" transform="translate(-181.51 -141.45)"/><path class="cls-4" d="M578.17,240.83" transform="translate(-181.51 -141.45)"/><path class="cls-5" d="M524.33,275.67s9.67,8-9.33,18c0,0-4.79-7.28,3.33-11C518.33,282.67,526,281,524.33,275.67Z" transform="translate(-181.51 -141.45)"/><path class="cls-3" d="M532,329.67" transform="translate(-181.51 -141.45)"/><path class="cls-1" d="M636.58,183" transform="translate(-181.51 -141.45)"/><ellipse class="cls-6" cx="595.66" cy="254.12" rx="9.3" ry="6.27" transform="translate(-201.16 -89.29) rotate(-4.93)"/><ellipse class="cls-7" cx="598.84" cy="252.39" rx="4.43" ry="2.98" transform="translate(-201 -89.02) rotate(-4.93)"/><polygon class="cls-3" points="404.79 107.91 427.61 112.55 425.75 109.64 416.76 103.57 409.03 102.92 404.79 107.91"/><circle cx="414.14" cy="112.35" r="1.93"/><path class="cls-6" d="M525.33,276.67s9.67,8-9.33,18c0,0-4.79-7.28,3.33-11C519.33,283.67,527,282,525.33,276.67Z" transform="translate(-181.51 -141.45)"/><path class="cls-8" d="M687.33,343.83c-27-29.17-46.21-37.17-46.21-37.17C634.92,327,602,314,602,314c-27-3.33-33.67-17.33-37.3-17s-0.7-3,0-6-9-5.33-9-5.33c-11.33-3.33-26,5-26,5-7.33,15-15.17,8.83-15.17,8.83,4.75,11.25,26.5,1.75,26.5,1.75,17-9.5,20.5,8.25,20.5,8.25a66.68,66.68,0,0,0,23,24.75c10.5,23,19.25,24,19.25,24,5.75-4.25,2.75-15.75,2.75-15.75,0-4,3.5-2.5,3.5-2.5,4,4.5,24.5,24,24.5,24,6,2.5,12.5,13.5,12.5,13.5,0,0.53,0,1,0,1.56-0.88,18.52,12.06,20.69,15.69,22.14,2.48,1,15.61-.7,18.93-1.87,8.12-2.86,6.4-1.21,16.33-8.83C711.67,354.67,688,354,687.33,343.83Z" transform="translate(-181.51 -141.45)"/><path class="cls-6" d="M500,286.8l-0.22.2c-8,8.25-.11,9.5-0.11,9.5,0.33,0.08.33-.6,0.33-0.41A16.44,16.44,0,0,1,500,286.8Z" transform="translate(-181.51 -141.45)"/><path class="cls-3" d="M230.44,371.09q0-12.23,9.66-21.75t22.18-9.52a31.25,31.25,0,0,1,22.51,9.37q9.63,9.38,9.63,21.89T285,393.28q-9.45,9.59-21.82,9.59a31.84,31.84,0,0,1-23-9.48Q230.44,383.9,230.44,371.09Zm51.82,0a17.85,17.85,0,0,0-5.79-13.23,19.07,19.07,0,0,0-13.75-5.62A19.56,19.56,0,0,0,248.65,358a18.24,18.24,0,0,0-5.9,13.6,17.64,17.64,0,0,0,6,13.2,19.71,19.71,0,0,0,14,5.66,18.84,18.84,0,0,0,13.68-5.8A18.41,18.41,0,0,0,282.27,371.13Z" transform="translate(-181.51 -141.45)"/><path class="cls-3" d="M321.93,341.49v12.3q4.2-7.38,8.22-10.68t10.46-3.29a22.94,22.94,0,0,1,5.21.87L342,353.29a31.39,31.39,0,0,0-4.78-.72A14.25,14.25,0,0,0,326.52,357a15.34,15.34,0,0,0-4.31,11.11V401.2H309.62a218.31,218.31,0,0,0,0-59.71h12.3Z" transform="translate(-181.51 -141.45)"/><path class="cls-9" d="M359.06,401.2a230,230,0,0,0,0-59.71h12.45v9.19a36.59,36.59,0,0,1,8.43-8.25,16.58,16.58,0,0,1,9.23-2.61q6.8,0,10.68,3t6.55,9.48a38.77,38.77,0,0,1,9.12-9.48,17.82,17.82,0,0,1,10.21-3A16.53,16.53,0,0,1,438,345.15a17.53,17.53,0,0,1,5.16,12.63V401.2H430.57a113.55,113.55,0,0,0,0-40.17,9.57,9.57,0,0,0-2.51-7.49q-2.45-2.42-7.29-2.42-5.59,0-9.48,5.07a20,20,0,0,0-3.88,12.52v32.5H394.81a151.44,151.44,0,0,0,0-38.5,10.64,10.64,0,0,0-3.44-9.82,9.46,9.46,0,0,0-6.19-1.9,12.19,12.19,0,0,0-9.7,4.78,17.81,17.81,0,0,0-4,11.8V401.2H359.06Z" transform="translate(-181.51 -141.45)"/><path class="cls-2" d="M455.85,370.53q0-12.46,9.84-22.16t22.6-9.7a31.83,31.83,0,0,1,22.93,9.55q9.81,9.55,9.81,22.3t-9.62,22.6q-9.62,9.77-22.23,9.77a32.43,32.43,0,0,1-23.41-9.66Q455.85,383.58,455.85,370.53Zm52.79,0a18.19,18.19,0,0,0-5.9-13.48,19.43,19.43,0,0,0-14-5.73,19.93,19.93,0,0,0-14.34,5.8,18.58,18.58,0,0,0-6,13.85,18,18,0,0,0,6.08,13.45,20.08,20.08,0,0,0,14.27,5.76,19.2,19.2,0,0,0,13.93-5.91A18.75,18.75,0,0,0,508.64,370.57Z" transform="translate(-181.51 -141.45)"/><path class="cls-2" d="M525,370.53q0-12.46,9.84-22.16t22.6-9.7a31.83,31.83,0,0,1,22.93,9.55q9.81,9.55,9.81,22.3t-9.62,22.6q-9.62,9.77-22.23,9.77a32.43,32.43,0,0,1-23.41-9.66Q525,383.58,525,370.53Zm52.79,0a18.19,18.19,0,0,0-5.9-13.48,19.44,19.44,0,0,0-14-5.73,19.93,19.93,0,0,0-14.34,5.8,18.58,18.58,0,0,0-6,13.85,18,18,0,0,0,6.08,13.45,20.08,20.08,0,0,0,14.27,5.76,19.2,19.2,0,0,0,13.94-5.91A18.76,18.76,0,0,0,577.8,370.57Z" transform="translate(-181.51 -141.45)"/><path class="cls-2" d="M634.28,347.6l-8.55,7.52a45.17,45.17,0,0,0-5.75-3.58,12.71,12.71,0,0,0-5.75-1.22q-7.82,0-7.82,5.75,0,4.13,9.92,8t14.27,8.53a15.78,15.78,0,0,1,4.35,11.19q0,7.66-6.27,13.37a21.18,21.18,0,0,1-14.75,5.71q-12.9,0-21.16-11.94l10.1-4.87q5.31,5.16,11.06,5.16a11.52,11.52,0,0,0,7-2.18q3-2.17,3-5.05,0-5.09-10.47-9.15t-14.49-8.23a14.23,14.23,0,0,1-4-10.28,16.16,16.16,0,0,1,5.71-12.64,20.87,20.87,0,0,1,14.34-5Q623.59,338.68,634.28,347.6Z" transform="translate(-181.51 -141.45)"/><path class="cls-2" d="M702.25,373.26H650.35q1.69,9.36,7.71,13.68a22,22,0,0,0,13.09,4.31q10.91,0,18.29-9.07l9.36,7.08q-10.55,13.64-28.24,13.64a30.58,30.58,0,0,1-22.71-9.29q-9.14-9.29-9.14-23.08A31,31,0,0,1,648,348.15a31.39,31.39,0,0,1,45.09.15Q702.4,357.92,702.25,373.26ZM651.68,363h37.16q-6.19-12.53-18.29-12.53Q657.35,350.48,651.68,363Z" transform="translate(-181.51 -141.45)"/><path class="cls-3" d="M220,346.95a73.55,73.55,0,0,1-12.48.05A77.12,77.12,0,0,1,194,344.6v-23c3,0.31,5.46.56,8.21,0.75a170.17,170.17,0,0,0,30.79-.75V309a106.27,106.27,0,0,1-36.14,2.67A104.58,104.58,0,0,1,181.61,309,427.22,427.22,0,0,1,184,353.9a423.64,423.64,0,0,1-2.53,47.1H194V357.05c3,0.54,6.62,1,10.11,1.28a114.06,114.06,0,0,0,15.89.2V346.95Z" transform="translate(-181.51 -141.45)"/></svg>